<svg viewBox="0 0 214 42" xmlns="http://www.w3.org/2000/svg" data-logo="logo">
        <g transform="translate(0, 1) rotate(0)" id="logogram" style="opacity: 1;"><path fill="#6EE7Aå7" d="M30 28V12C30 10.8954 29.1046 10 28 10H27.8994C27.369 10 26.8604 10.2109 26.4854 10.5859L10.5859 26.4854C10.2109 26.8604 10 27.369 10 27.8994V40H0V27.8994C2.15312e-05 24.7168 1.26423 21.6645 3.51465 19.4141L19.4141 3.51465C21.6645 1.26423 24.7168 2.1373e-05 27.8994 0H28C34.6274 0 40 5.37258 40 12V28C40 34.6274 34.6274 40 28 40H14V30H28C29.1046 30 30 29.1046 30 28Z M0 0H17L7 10H0V0Z"></path></g>
        <g transform="translate(46, 8)" id="logotype" style="opacity: 1;"><path d="M13.52 26L8.31 26L8.31 0.54L18.24 0.54Q21.14 0.54 23.18 1.56Q25.21 2.59 26.28 4.45Q27.35 6.31 27.35 8.82L27.35 8.82Q27.35 11.34 26.26 13.16Q25.17 14.98 23.12 15.94Q21.06 16.91 18.12 16.91L18.12 16.91L11.38 16.91L11.38 12.69L17.28 12.69Q18.89 12.69 19.91 12.25Q20.94 11.82 21.45 10.95Q21.96 10.09 21.96 8.82L21.96 8.82Q21.96 7.53 21.45 6.65Q20.94 5.77 19.90 5.30Q18.87 4.84 17.26 4.84L17.26 4.84L13.52 4.84L13.52 26ZM28.25 26L22.47 26L16.27 14.41L21.93 14.41L28.25 26ZM37.53 26.38L37.53 26.38Q34.61 26.38 32.49 25.18Q30.37 23.98 29.23 21.78Q28.10 19.57 28.10 16.55L28.10 16.55Q28.10 13.59 29.22 11.37Q30.35 9.15 32.42 7.90Q34.49 6.65 37.27 6.65L37.27 6.65Q39.15 6.65 40.78 7.25Q42.40 7.85 43.63 9.06Q44.86 10.26 45.55 12.07Q46.24 13.88 46.24 16.34L46.24 16.34L46.24 17.78L30.20 17.78L30.20 14.57L43.73 14.57L41.34 15.42Q41.34 13.93 40.89 12.83Q40.43 11.73 39.54 11.12Q38.64 10.52 37.31 10.52L37.31 10.52Q35.99 10.52 35.06 11.13Q34.13 11.75 33.65 12.80Q33.17 13.85 33.17 15.20L33.17 15.20L33.17 17.47Q33.17 19.13 33.73 20.26Q34.28 21.39 35.28 21.95Q36.28 22.51 37.61 22.51L37.61 22.51Q38.52 22.51 39.25 22.26Q39.99 22.00 40.51 21.50Q41.03 20.99 41.31 20.26L41.31 20.26L45.95 21.13Q45.49 22.70 44.35 23.89Q43.20 25.08 41.49 25.73Q39.77 26.38 37.53 26.38ZM52.80 26.38L52.80 26.38Q50.99 26.38 49.55 25.74Q48.11 25.09 47.28 23.82Q46.45 22.55 46.45 20.65L46.45 20.65Q46.45 19.06 47.04 17.98Q47.63 16.91 48.64 16.26Q49.66 15.61 50.95 15.27Q52.24 14.93 53.66 14.79L53.66 14.79Q55.32 14.62 56.33 14.47Q57.35 14.33 57.82 14.01Q58.29 13.70 58.29 13.08L58.29 13.08L58.29 12.99Q58.29 12.17 57.95 11.61Q57.61 11.05 56.94 10.75Q56.27 10.45 55.30 10.45L55.30 10.45Q54.31 10.45 53.57 10.75Q52.84 11.05 52.38 11.54Q51.92 12.04 51.69 12.65L51.69 12.65L46.99 11.87Q47.49 10.21 48.64 9.05Q49.78 7.88 51.48 7.27Q53.18 6.65 55.30 6.65L55.30 6.65Q56.86 6.65 58.31 7.02Q59.76 7.39 60.91 8.16Q62.07 8.93 62.74 10.16Q63.42 11.39 63.42 13.13L63.42 13.13L63.42 26L58.56 26L58.56 23.35L58.39 23.35Q57.93 24.24 57.16 24.91Q56.39 25.59 55.31 25.98Q54.22 26.38 52.80 26.38ZM54.26 22.77L54.26 22.77Q55.47 22.77 56.39 22.29Q57.30 21.81 57.81 20.99Q58.33 20.17 58.33 19.16L58.33 19.16L58.33 17.10Q58.10 17.27 57.64 17.40Q57.18 17.54 56.62 17.64Q56.05 17.75 55.51 17.83Q54.96 17.92 54.53 17.97L54.53 17.97Q53.59 18.10 52.87 18.41Q52.16 18.72 51.76 19.22Q51.37 19.73 51.37 20.51L51.37 20.51Q51.37 21.25 51.75 21.75Q52.12 22.26 52.76 22.51Q53.40 22.77 54.26 22.77ZM72.51 26.32L72.51 26.32Q70.30 26.32 68.53 25.19Q66.77 24.05 65.74 21.86Q64.71 19.66 64.71 16.48L64.71 16.48Q64.71 13.22 65.77 11.03Q66.83 8.84 68.59 7.75Q70.35 6.65 72.47 6.65L72.47 6.65Q74.10 6.65 75.17 7.20Q76.25 7.75 76.92 8.55Q77.58 9.35 77.91 10.11L77.91 10.11L78.08 10.11L78.08 0.54L83.21 0.54L83.21 26L78.16 26L78.16 22.94L77.91 22.94Q77.57 23.71 76.89 24.49Q76.22 25.27 75.14 25.79Q74.06 26.32 72.51 26.32ZM74.08 22.21L74.08 22.21Q75.38 22.21 76.30 21.49Q77.22 20.77 77.70 19.48Q78.18 18.19 78.18 16.46L78.18 16.46Q78.18 14.72 77.71 13.45Q77.24 12.17 76.32 11.47Q75.40 10.76 74.08 10.76L74.08 10.76Q72.73 10.76 71.82 11.49Q70.90 12.23 70.44 13.51Q69.98 14.79 69.98 16.46L69.98 16.46Q69.98 18.14 70.45 19.44Q70.92 20.74 71.83 21.47Q72.75 22.21 74.08 22.21ZM92.89 26.38L92.89 26.38Q90.59 26.38 88.81 25.72Q87.03 25.06 85.90 23.80Q84.78 22.55 84.45 20.77L84.45 20.77L89.22 19.95Q89.60 21.28 90.54 21.95Q91.48 22.62 93.05 22.62L93.05 22.62Q94.50 22.62 95.35 22.06Q96.21 21.51 96.21 20.65L96.21 20.65Q96.21 19.90 95.60 19.42Q95.00 18.94 93.75 18.69L93.75 18.69L90.45 18.00Q87.68 17.44 86.31 16.08Q84.95 14.72 84.95 12.58L84.95 12.58Q84.95 10.74 85.96 9.41Q86.96 8.09 88.76 7.37Q90.55 6.65 92.98 6.65L92.98 6.65Q95.23 6.65 96.89 7.28Q98.55 7.90 99.58 9.05Q100.60 10.19 100.94 11.75L100.94 11.75L96.40 12.55Q96.11 11.58 95.28 10.95Q94.45 10.33 93.05 10.33L93.05 10.33Q91.78 10.33 90.93 10.86Q90.07 11.39 90.07 12.26L90.07 12.26Q90.07 12.99 90.63 13.49Q91.18 13.99 92.53 14.26L92.53 14.26L95.97 14.94Q98.74 15.51 100.09 16.78Q101.44 18.05 101.44 20.10L101.44 20.10Q101.44 21.98 100.34 23.39Q99.25 24.80 97.33 25.59Q95.41 26.38 92.89 26.38ZM100.79 6.89L112.12 6.89L112.12 10.81L100.79 10.81L100.79 6.89ZM103.42 20.86L103.42 2.35L108.55 2.35L108.55 20.41Q108.55 21.32 108.95 21.75Q109.35 22.19 110.29 22.19L110.29 22.19Q110.58 22.19 111.11 22.11Q111.64 22.04 111.91 21.97L111.91 21.97L112.65 25.81Q111.79 26.07 110.95 26.17Q110.10 26.27 109.33 26.27L109.33 26.27Q106.46 26.27 104.94 24.87Q103.42 23.47 103.42 20.86L103.42 20.86ZM118.51 26.38L118.51 26.38Q116.70 26.38 115.25 25.74Q113.81 25.09 112.98 23.82Q112.15 22.55 112.15 20.65L112.15 20.65Q112.15 19.06 112.74 17.98Q113.33 16.91 114.35 16.26Q115.36 15.61 116.65 15.27Q117.94 14.93 119.36 14.79L119.36 14.79Q121.02 14.62 122.04 14.47Q123.05 14.33 123.52 14.01Q123.99 13.70 123.99 13.08L123.99 13.08L123.99 12.99Q123.99 12.17 123.65 11.61Q123.31 11.05 122.64 10.75Q121.98 10.45 121.00 10.45L121.00 10.45Q120.01 10.45 119.28 10.75Q118.54 11.05 118.08 11.54Q117.62 12.04 117.40 12.65L117.40 12.65L112.70 11.87Q113.19 10.21 114.34 9.05Q115.48 7.88 117.18 7.27Q118.88 6.65 121.00 6.65L121.00 6.65Q122.56 6.65 124.01 7.02Q125.46 7.39 126.62 8.16Q127.77 8.93 128.44 10.16Q129.12 11.39 129.12 13.13L129.12 13.13L129.12 26L124.27 26L124.27 23.35L124.10 23.35Q123.63 24.24 122.87 24.91Q122.10 25.59 121.01 25.98Q119.93 26.38 118.51 26.38ZM119.96 22.77L119.96 22.77Q121.17 22.77 122.09 22.29Q123.00 21.81 123.51 20.99Q124.03 20.17 124.03 19.16L124.03 19.16L124.03 17.10Q123.81 17.27 123.34 17.40Q122.88 17.54 122.32 17.64Q121.75 17.75 121.21 17.83Q120.66 17.92 120.23 17.97L120.23 17.97Q119.29 18.10 118.58 18.41Q117.86 18.72 117.46 19.22Q117.07 19.73 117.07 20.51L117.07 20.51Q117.07 21.25 117.45 21.75Q117.82 22.26 118.46 22.51Q119.11 22.77 119.96 22.77ZM139.76 26.38L139.76 26.38Q136.88 26.38 134.78 25.14Q132.69 23.90 131.55 21.68Q130.42 19.47 130.42 16.53L130.42 16.53Q130.42 13.56 131.55 11.35Q132.69 9.13 134.78 7.89Q136.88 6.65 139.76 6.65L139.76 6.65Q141.46 6.65 142.89 7.10Q144.33 7.54 145.44 8.36Q146.55 9.18 147.27 10.36Q147.99 11.54 148.26 13.01L148.26 13.01L143.49 13.90Q143.34 13.15 143.01 12.56Q142.69 11.97 142.23 11.55Q141.76 11.13 141.16 10.91Q140.55 10.69 139.82 10.69L139.82 10.69Q138.45 10.69 137.52 11.42Q136.59 12.16 136.12 13.47Q135.65 14.79 135.65 16.52L135.65 16.52Q135.65 18.22 136.12 19.53Q136.59 20.84 137.52 21.59Q138.45 22.34 139.82 22.34L139.82 22.34Q140.55 22.34 141.17 22.11Q141.78 21.88 142.26 21.45Q142.74 21.01 143.06 20.39Q143.39 19.78 143.52 19.01L143.52 19.01L148.29 19.88Q148.02 21.40 147.30 22.59Q146.58 23.78 145.47 24.63Q144.36 25.49 142.92 25.93Q141.47 26.38 139.76 26.38ZM157.67 16.48L154.19 20.41L154.19 14.24L154.96 14.24L161.21 6.89L167.14 6.89L158.89 16.48L157.67 16.48ZM154.67 26L149.54 26L149.54 0.54L154.67 0.54L154.67 26ZM167.50 26L161.47 26L155.72 17.63L159.16 13.99L167.50 26Z" fill="#b3b2b2"></path></g>
        
      </svg>